<?xml version="1.0" encoding="UTF-8" standalone="no"?>
<!-- Created with Inkscape (http://www.inkscape.org/) -->

<svg
   xmlns:dc="http://purl.org/dc/elements/1.1/"
   xmlns:cc="http://creativecommons.org/ns#"
   xmlns:rdf="http://www.w3.org/1999/02/22-rdf-syntax-ns#"
   xmlns:svg="http://www.w3.org/2000/svg"
   xmlns="http://www.w3.org/2000/svg"
   xmlns:sodipodi="http://sodipodi.sourceforge.net/DTD/sodipodi-0.dtd"
   xmlns:inkscape="http://www.inkscape.org/namespaces/inkscape"
   id="svg1361"
   height="239.89751"
   width="123.09026"
   y="0.00000000"
   x="0.00000000"
   version="1.0"
   inkscape:version="0.47 r22583"
   sodipodi:docname="ZZ.svg">
  <metadata
     id="metadata10">
    <rdf:RDF>
      <cc:Work
         rdf:about="">
        <dc:format>image/svg+xml</dc:format>
        <dc:type
           rdf:resource="http://purl.org/dc/dcmitype/StillImage" />
      </cc:Work>
    </rdf:RDF>
  </metadata>
  <sodipodi:namedview
     pagecolor="#ffffff"
     bordercolor="#666666"
     borderopacity="1"
     objecttolerance="10"
     gridtolerance="10"
     guidetolerance="10"
     inkscape:pageopacity="0"
     inkscape:pageshadow="2"
     inkscape:window-width="1280"
     inkscape:window-height="1004"
     id="namedview8"
     showgrid="false"
     inkscape:zoom="6.2933332"
     inkscape:cx="84.720515"
     inkscape:cy="203.19971"
     inkscape:window-x="-8"
     inkscape:window-y="-8"
     inkscape:window-maximized="1"
     inkscape:current-layer="layer1" />
  <defs
     id="defs3">
    <inkscape:perspective
       sodipodi:type="inkscape:persp3d"
       inkscape:vp_x="0 : 300 : 1"
       inkscape:vp_y="0 : 1000 : 0"
       inkscape:vp_z="900 : 300 : 1"
       inkscape:persp3d-origin="450 : 200 : 1"
       id="perspective12" />
    <inkscape:perspective
       id="perspective5975"
       inkscape:persp3d-origin="0.5 : 0.33333333 : 1"
       inkscape:vp_z="1 : 0.5 : 1"
       inkscape:vp_y="0 : 1000 : 0"
       inkscape:vp_x="0 : 0.5 : 1"
       sodipodi:type="inkscape:persp3d" />
    <inkscape:perspective
       id="perspective2824"
       inkscape:persp3d-origin="0.5 : 0.33333333 : 1"
       inkscape:vp_z="1 : 0.5 : 1"
       inkscape:vp_y="0 : 1000 : 0"
       inkscape:vp_x="0 : 0.5 : 1"
       sodipodi:type="inkscape:persp3d" />
    <inkscape:perspective
       id="perspective2824-1"
       inkscape:persp3d-origin="0.5 : 0.33333333 : 1"
       inkscape:vp_z="1 : 0.5 : 1"
       inkscape:vp_y="0 : 1000 : 0"
       inkscape:vp_x="0 : 0.5 : 1"
       sodipodi:type="inkscape:persp3d" />
  </defs>
  <g
     id="layer1"
     transform="translate(548.71902,12.7193)">
    <path
       style="fill:#ce1126;fill-opacity:1;stroke:none"
       d="M 42.0625 0 C 41.0725 2.23 36.78115 2.45875 36.28125 4.46875 C 36.13025 5.06875 36.425 5.59625 36.625 6.15625 C 36.646 6.17625 36.65625 6.19875 36.65625 6.21875 C 36.82615 6.68875 36.90115 7.1687499 36.53125 7.71875 C 36.52325 7.73875 36.5099 7.77125 36.5 7.78125 C 36.418 7.89125 36.32775 7.98375 36.21875 8.09375 C 35.67885 8.63375 33.8015 9.69 32.0625 10.25 C 31.0435 10.57 30.09875 10.73 29.46875 10.5 C 29.33875 10.46 29.215 10.3925 29.125 10.3125 C 28.946 10.1625 28.811 9.9575 28.75 9.6875 C 28.71 9.4675 28.72025 9.21625 28.78125 8.90625 L 28.78125 8.875 C 28.63225 8.8849 28.48475 8.91875 28.34375 8.96875 C 28.25375 8.98875 28.1535 9.04375 28.0625 9.09375 C 27.9615 9.14375 27.86125 9.18 27.78125 9.25 L 27.78125 9.28125 C 26.31225 10.42125 25.71275 13.78625 25.09375 14.15625 C 25.06475 14.17615 25.05225 14.1775 25.03125 14.1875 C 24.98125 14.1975 24.93705 14.18625 24.875 14.15625 C 24.857 14.14625 24.8335 14.11375 24.8125 14.09375 C 24.5125 13.90375 24.2085 13.6675 23.9375 13.4375 C 23.7575 13.2775 23.6075 13.13875 23.4375 12.96875 C 23.3865 12.91875 23.33125 12.8725 23.28125 12.8125 L 23.25 12.8125 C 23.1908 12.7625 23.14375 12.70625 23.09375 12.65625 C 22.84375 12.39625 22.58375 12.11375 22.34375 11.84375 C 22.31575 11.82375 22.30225 11.81125 22.28125 11.78125 C 22.03125 11.52125 21.8025 11.25 21.5625 11 C 21.5335 10.97 21.49865 10.9675 21.46875 10.9375 C 21.43775 10.9075 21.4039 10.8525 21.375 10.8125 C 21.345 10.7726 21.30215 10.74875 21.28125 10.71875 C 21.15125 10.58875 21.0465 10.48625 20.9375 10.40625 C 20.7665 10.27625 20.59975 10.19625 20.46875 10.15625 C 20.43775 10.14635 20.37375 10.135 20.34375 10.125 C 20.25275 10.105 20.16375 10.105 20.09375 10.125 C 19.37375 10.335 19.3065 12.0775 18.9375 12.9375 L 18.8125 12.8125 C 18.4015 12.3125 18.0465 11.6975 17.6875 11.1875 C 17.3275 10.6875 16.9535 10.29875 16.5625 10.21875 C 16.4535 10.19875 16.359 10.19875 16.25 10.21875 C 16 10.26875 15.7265 10.4525 15.4375 10.8125 C 15.4185 10.8224 15.40625 10.83375 15.40625 10.84375 C 15.25725 11.03375 15.0975 11.24125 14.9375 11.53125 C 14.6585 11.99125 14.3625 12.45375 14.0625 12.84375 C 14.0515 12.86375 14.05215 12.88625 14.03125 12.90625 C 13.49125 13.60625 12.93125 14.1325 12.28125 14.3125 C 11.96225 14.39255 11.63225 14.39125 11.28125 14.28125 C 10.86125 14.16125 10.42875 13.87625 9.96875 13.40625 C 9.61975 13.06625 9.0225 12.4975 8.3125 11.9375 C 7.3815 11.2175 6.271 10.52 5.25 10.25 C 5.191 10.23 5.1125 10.2075 5.0625 10.1875 C 4.7035 10.1175 4.3635 10.1275 4.0625 10.1875 C 4.0235 10.1975 4.00865 10.1775 3.96875 10.1875 C 3.60775 10.2875 3.28125 10.52625 3.03125 10.90625 C 2.53125 11.66625 2.43475 13.03625 2.09375 14.15625 C 2.09375 14.16615 2.0734 14.1675 2.0625 14.1875 C 1.7515 15.1675 1.2515 15.95625 0.0625 15.90625 C 0.1727 16.126 -0.0878 15.913 0.03125 16.125 C 0.18125 16.265 0.2965 16.445 0.4375 16.625 C 0.4375 16.635 0.46875 16.615 0.46875 16.625 C 0.90075 17.165 1.284 17.81625 1.875 18.40625 C 3.546 20.08625 5.48 21.65 7.25 23.25 C 8.442 24.32 8.4775 26.53875 9.6875 27.46875 L 9.71875 27.46875 C 9.88875 27.59875 10.0835 27.68 10.3125 27.75 C 10.8925 27.13 11.11125 26.46875 11.03125 25.71875 C 11.02125 25.63875 11.0209 25.55875 11 25.46875 L 11 25.4375 C 10.972 25.3675 10.9575 25.29875 10.9375 25.21875 C 11.4991 26.56932 13.2375 26.37786 13.625 28.15625 C 13.945 29.60625 13.32125 31.22625 13.28125 32.90625 L 13.28125 32.9375 C 13.27125 33.4175 13.30555 33.92625 13.4375 34.40625 C 13.8775 36.12625 14.71 37.375 15.75 38.375 L 15.8125 38.4375 C 16.6645 39.2375 17.67 39.86625 18.75 40.40625 L 18.75 40.4375 C 19.44 40.7875 20.16625 41.09625 20.90625 41.40625 C 21.04425 41.4662 21.19375 41.5025 21.34375 41.5625 C 23.03175 42.2525 24.7845 42.93375 26.3125 43.84375 L 26.375 43.875 C 26.395 43.895 26.44075 43.9275 26.46875 43.9375 C 27.25075 42.8875 27.33625 41.89375 27.90625 41.09375 C 28.19625 40.68375 28.57125 40.32125 29.28125 40.03125 C 30.00225 39.74125 30.6825 39.59375 31.3125 39.59375 C 32.0945 39.59375 32.82125 39.795 33.53125 40.125 C 33.80125 40.255 34.0525 40.38125 34.3125 40.53125 C 34.7625 40.79125 35.20625 41.1075 35.65625 41.4375 C 35.88715 41.5975 36.125 41.73625 36.375 41.90625 C 37.445 42.64625 38.6225 43.5225 38.8125 44.8125 C 38.8625 45.1125 38.775 45.33125 38.625 45.53125 L 38.625 45.5625 C 38.274 45.982499 37.568 46.23375 37 46.59375 C 36.96 46.62375 36.89475 46.67875 36.84375 46.71875 C 36.76385 46.76875 36.695 46.815 36.625 46.875 C 36.5647 46.93495 36.5298 46.97125 36.46875 47.03125 L 36.375 47.15625 C 36.353 47.18615 36.3335 47.22 36.3125 47.25 C 36.2725 47.32 36.2175 47.39875 36.1875 47.46875 C 36.1775 47.50865 36.17715 47.5225 36.15625 47.5625 C 36.21615 47.5825 36.314 47.605 36.375 47.625 C 37.085 47.855 38.0225 47.885 38.8125 48.125 C 39.1025 48.205 39.396 48.33 39.625 48.5 C 39.905 48.7 40.11785 48.97375 40.21875 49.34375 C 40.32775 49.69375 40.46725 49.935 40.65625 50.125 C 40.65625 50.125 40.6875 50.14625 40.6875 50.15625 C 41.1475 50.61625 41.811 50.7025 42.5 51.0625 C 42.532 51.0824 42.5415 51.08375 42.5625 51.09375 C 42.5925 51.11375 42.604 51.14625 42.625 51.15625 C 44.397 52.12625 45.03125 52.73625 45.03125 53.40625 C 45.03125 54.20625 44.12115 55.06875 43.03125 56.71875 L 43.03125 56.75 C 43.06125 56.76 43.104 56.74 43.125 56.75 C 43.165 56.75 43.19885 56.76125 43.21875 56.78125 C 43.47975 56.87125 43.62775 57.00625 43.71875 57.15625 C 43.77975 57.23625 43.8015 57.31625 43.8125 57.40625 C 43.8235 57.49625 43.78 57.5875 43.75 57.6875 C 43.679 57.9175 43.5 58.1775 43.25 58.4375 C 43 58.6975 42.6825 58.9475 42.3125 59.1875 C 42.1315 59.3185 41.91875 59.42125 41.71875 59.53125 C 41.51985 59.64125 41.30375 59.775 41.09375 59.875 C 40.88385 59.975 40.67975 60.045 40.46875 60.125 C 39.70885 60.425 38.97975 60.58 38.46875 60.5 C 38.05985 60.45 34.48965 59.3875 33.21875 59.6875 C 33.06775 59.7175 32.945 59.76375 32.875 59.84375 C 32.867 59.85365 32.85465 59.865 32.84375 59.875 C 32.82475 59.8949 32.8234 59.93875 32.8125 59.96875 L 32.78125 59.96875 C 32.69125 60.29875 32.86475 60.70625 33.09375 61.15625 C 33.15375 61.27625 33.21125 61.37 33.28125 61.5 C 33.68125 62.2 34.14625 63.0025 34.15625 63.8125 C 34.15625 63.9625 34.18425 64.13125 34.15625 64.28125 C 33.92425 64.28125 33.67975 64.305 33.46875 64.375 C 33.08875 64.485 32.75 64.6975 32.5 64.9375 C 32.33 65.1075 32.21625 65.3 32.15625 65.5 C 32.03625 65.93 32.2615 66.3875 33.0625 66.6875 C 33.1105 66.7075 33.1577 66.73 33.21875 66.75 C 33.30975 66.7799 33.41 66.81375 33.5 66.84375 C 33.66 66.90375 33.83 66.96125 34 67.03125 C 34.12 67.07125 34.24375 67.10625 34.34375 67.15625 C 34.53375 67.23625 34.71625 67.32625 34.90625 67.40625 C 35.08615 67.50625 35.28085 67.61875 35.46875 67.71875 C 36.54875 68.26875 37.65885 68.92625 38.71875 69.65625 C 40.66875 71.01625 42.57125 72.55 44.28125 73.75 C 44.39115 73.82 44.54885 73.8675 44.71875 73.9375 C 44.75875 73.9475 44.7725 73.99 44.8125 74 C 44.8945 74.03 44.99285 74.0325 45.09375 74.0625 C 45.15475 74.0825 45.22025 74.105 45.28125 74.125 C 45.32125 74.1349 45.3461 74.14625 45.375 74.15625 C 45.4373 74.16615 45.4703 74.1775 45.53125 74.1875 C 45.60215 74.2075 45.71225 74.23 45.78125 74.25 C 45.90115 74.2799 46.005 74.31375 46.125 74.34375 C 47.054 74.55375 48.16625 74.75125 49.15625 75.03125 C 49.1867 75.04125 49.218238 75.051875 49.25 75.0625 L 61.625 36.625 L 66.15625 50.71875 C 66.411108 50.351794 66.597579 50.03021 66.625 49.84375 C 66.435 49.90375 66.2425 49.90375 66.0625 49.84375 C 67.4215 48.89375 67.08875 45.3325 66.46875 44.0625 C 66.98875 44.3625 69.6875 44.38625 68.9375 43.15625 C 68.0375 41.67625 67.15485 40.98375 68.34375 39.59375 C 67.63385 39.26375 66.99875 38.83 66.46875 38.25 C 68.18975 37.67 68.66385 39.8925 69.84375 40.5625 C 69.91375 39.8025 71.80885 37.62875 73.21875 37.96875 C 71.01685 40.47875 75.38525 39.14 76.15625 37.75 C 76.95715 36.31 75.23625 34.34 77.40625 34 C 79.42715 33.69 79.90625 31.9275 81.40625 30.6875 C 83.05715 29.307499 83.42225 31.9825 85.03125 30.5625 C 84.09225 29.852499 83.0125 28.6125 81.8125 28.0625 C 81.8025 28.0526 81.79115 28.04125 81.78125 28.03125 C 81.61125 27.95125 81.439 27.89375 81.25 27.84375 C 81.16 27.82385 81.05975 27.8225 80.96875 27.8125 C 80.87085 27.8026 80.7785 27.78125 80.6875 27.78125 C 80.6185 27.78125 80.53775 27.77125 80.46875 27.78125 C 80.39985 27.79115 80.33 27.8025 80.25 27.8125 L 80 27.875 C 79.731 27.955 79.46875 28.0675 79.21875 28.1875 C 79.04985 28.2575 78.899 28.3575 78.75 28.4375 C 78.51 28.5475 78.2725 28.63875 78.0625 28.71875 L 78.03125 28.71875 C 77.36925 28.94875 76.8285 28.91625 76.4375 27.90625 L 76.4375 27.875 C 75.9985 28.145 75.53275 28.4175 75.09375 28.6875 C 75.07275 28.62755 75.05225 28.59125 75.03125 28.53125 C 75.00225 28.44125 74.94625 28.33 74.90625 28.25 C 74.03625 26.78 71.15 26.77 70.25 25.5 C 70.08 25.27 70 24.99625 70 24.65625 C 70 24.61625 69.97975 24.57125 69.96875 24.53125 C 69.94885 24.30125 69.82615 24.085 69.65625 23.875 C 69.25725 23.395 68.56015 23 67.78125 22.75 C 67.52025 22.66 67.25 22.58125 67 22.53125 C 66.29 22.4012 65.6185 22.415 65.1875 22.625 C 65.1775 22.6349 65.16725 22.65625 65.15625 22.65625 C 65.12725 22.67615 65.0924 22.6675 65.0625 22.6875 C 65.0335 22.6975 65.021 22.73 65 22.75 C 63.85 19.17 61.89525 16.4825 61.90625 12.8125 L 61.90625 12.78125 C 62.03615 12.82115 62.131 12.855 62.25 12.875 C 62.25 12.875 62.27135 12.89625 62.28125 12.90625 C 62.49215 12.94645 62.67385 12.9475 62.84375 12.9375 C 62.91375 12.9276 62.97025 12.92625 63.03125 12.90625 C 63.04125 12.90625 63.0625 12.875 63.0625 12.875 C 63.1125 12.8551 63.1475 12.86375 63.1875 12.84375 C 63.3385 12.76375 63.45125 12.64 63.53125 12.5 C 63.63265 12.3 63.70875 12.06125 63.71875 11.78125 C 63.72875 11.74125 63.71875 11.69625 63.71875 11.65625 C 63.71875 10.52625 63.08 8.98625 62.5 8.40625 C 61.582 7.49625 60.5625 7.5725 59.5625 7.8125 C 59.5545 7.8125 59.54115 7.84375 59.53125 7.84375 C 59.47025 7.86365 59.40475 7.865 59.34375 7.875 C 59.22185 7.9049 59.109 7.93875 59 7.96875 C 58.809 8.01875 58.6175 8.05375 58.4375 8.09375 C 58.2565 8.13365 58.1075 8.1675 57.9375 8.1875 C 57.8575 8.1975 57.7665 8.1875 57.6875 8.1875 L 57.65625 8.1875 C 57.04725 8.2075 56.46875 8.06875 55.96875 7.46875 C 55.12885 6.4387499 54.18615 6.4325 53.15625 6.5625 L 53.125 6.5625 C 52.305 6.6725 51.42215 6.8675 50.53125 6.6875 C 50.39225 6.6676 50.255 6.63375 50.125 6.59375 C 49.986 6.55375 49.85975 6.4975 49.71875 6.4375 C 49.69875 6.4276 49.67725 6.41625 49.65625 6.40625 C 49.63525 6.39635 49.61475 6.385 49.59375 6.375 C 46.98485 5.1060001 44.7675 3.3337504 42.9375 1.09375 C 42.8575 1.00375 42.78875 0.9025 42.71875 0.8125 C 42.50885 0.5625 42.29275 0.31125 42.09375 0.03125 C 42.08275 0.03125 42.0625 0 42.0625 0 z M 66.15625 50.71875 C 66.013835 50.923803 65.84703 51.141588 65.65625 51.375 C 65.850103 51.13847 66.012336 50.925964 66.15625 50.71875 z M 10.90625 25.0625 C 10.90625 25.0824 10.9276 25.12625 10.9375 25.15625 C 10.9345 25.15025 10.90625 25.16225 10.90625 25.15625 C 10.89625 25.13635 10.91625 25.0925 10.90625 25.0625 z M 64.3125 52.8125 C 64.08276 53.033276 63.856441 53.244119 63.625 53.4375 C 63.856739 53.245158 64.082014 53.032621 64.3125 52.8125 z M 62.78125 54.0625 C 62.61412 54.167475 62.462887 54.246532 62.3125 54.3125 C 62.457241 54.249175 62.620785 54.162027 62.78125 54.0625 z M 58.34375 66.1875 C 58.330438 66.829951 58.238844 67.497939 58 68.1875 C 58.238844 67.497939 58.330438 66.829951 58.34375 66.1875 z M 111.0625 133.875 L 96.375 144.65625 L 113.40625 197.625 C 113.36355 197.66407 113.32176 197.70802 113.28125 197.75 C 113.48605 197.53952 113.72728 197.36123 114 197.25 C 114.86 196.72 115.6585 196.12875 116.4375 195.46875 C 119.1875 194.05775 118.20625 193.9675 118.90625 191.4375 C 119.01715 191.0375 120.819 190.44875 121.25 189.21875 C 121.651 188.06875 121.5835 186.96 120.0625 187 C 120.4725 185.68 121.18375 184.29875 120.34375 182.96875 C 120.86475 183.78875 121.13525 184.67625 121.15625 185.65625 C 121.82615 184.02625 120.585 178.25625 119.375 177.15625 C 120.325 177.37625 121.2225 177.75 122.0625 178.25 C 121.2325 176.5 118.86625 173.39625 121.40625 171.90625 C 121.72515 172.93625 122.25 173.82375 123 174.59375 C 123.16 173.46375 123.1365 169.78125 122.6875 169.03125 C 121.5965 167.20125 120.955 165.8 120.375 163.75 C 119.9753 162.32 117.9689 161.05875 120.46875 160.71875 C 119.59685 159.91875 118.9165 158.98625 118.4375 157.90625 C 120.5385 161.11625 118.3875 155.82 118.4375 154 C 119.2885 157.27 119.24275 153.86875 119.09375 153.21875 C 118.79385 151.89875 118.19615 150.6575 117.65625 149.4375 C 116.29725 146.3975 115.63375 143.155 114.34375 140.125 C 113.46218 138.06469 111.73998 136.06128 111.0625 133.875 z M 81.59375 184.8125 C 81.549828 184.82302 81.513075 184.83276 81.46875 184.84375 C 81.43875 184.85375 81.42725 184.84375 81.40625 184.84375 L 81.40625 184.875 C 81.41625 184.885 81.4375 184.865 81.4375 184.875 C 81.4875 184.945 81.54375 185.01375 81.59375 185.09375 C 81.74575 185.32375 81.84525 185.5725 81.90625 185.8125 C 81.90625 185.8424 81.89625 185.87625 81.90625 185.90625 C 81.92525 185.97625 81.95775 186.065 81.96875 186.125 C 81.97775 186.215 82 186.285 82 186.375 C 82.03 186.715 82.01 187.0875 82 187.4375 C 82 187.7575 81.99 188.08625 82 188.40625 C 82.029 188.70625 82.0553 188.99125 82.15625 189.28125 C 82.17525 189.35125 82.2201 189.43 82.25 189.5 C 82.24 189.51 82.27135 189.52135 82.28125 189.53125 C 82.30125 189.59125 82.31475 189.65875 82.34375 189.71875 C 82.33375 189.71875 82.3235 189.72875 82.3125 189.71875 C 82.2305 189.70875 82.13215 189.655 82.03125 189.625 C 81.61125 189.495 81.10015 189.26 80.53125 189 C 80.44125 188.9601 80.34 188.94615 80.25 188.90625 C 80.05 188.82625 79.86615 188.715 79.65625 188.625 C 79.54525 188.585 79.4225 188.55 79.3125 188.5 C 79.2125 188.46 79.102 188.415 79 188.375 C 77.602 187.855 76.244 187.5925 75.625 188.5625 C 75.385 188.9425 75.04875 189.21875 74.71875 189.46875 C 74.38885 189.72875 74.0415 189.98 73.8125 190.25 C 73.7845 190.28 73.77 190.2825 73.75 190.3125 C 73.67 190.4225 73.6135 190.5475 73.5625 190.6875 C 73.5525 190.7075 73.54115 190.72 73.53125 190.75 C 73.49025 190.87 73.46875 191.00625 73.46875 191.15625 C 73.46875 191.27625 73.4708 191.39125 73.5 191.53125 C 73.66 192.26225 73.875 193.0515 74.125 193.8125 C 74.436 194.8015 74.84385 195.76375 75.34375 196.59375 C 75.77175 197.31475 76.574 197.76875 77.375 198.21875 C 77.845 198.46875 78.2875 198.71225 78.6875 199.03125 C 79.1875 199.43125 79.59 199.94625 79.75 200.65625 C 79.769 200.73625 79.77135 200.796 79.78125 200.875 L 79.78125 200.90625 C 79.45125 200.94625 79.255 201.016 79.125 201.125 C 79.0447 201.195 78.98975 201.285 78.96875 201.375 C 78.92125 201.545 78.96175 201.76 79.03125 202 C 79.06225 202.08 79.0961 202.16 79.125 202.25 C 79.304 202.71 79.54125 203.26475 79.53125 203.84375 C 79.53125 203.83275 79.511 203.84375 79.5 203.84375 C 79.301 203.78475 79.11615 203.7375 78.90625 203.6875 C 78.82625 203.6765 78.73625 203.646 78.65625 203.625 C 78.61625 203.625 78.57125 203.635 78.53125 203.625 C 77.53925 203.435 76.5375 203.301 75.6875 202.75 C 75.5875 202.681 75.49625 202.59 75.40625 202.5 C 74.95725 202.04 74.57375 201.346 74.09375 200.875 L 74.03125 200.8125 C 74.00925 200.7915 73.98975 200.77 73.96875 200.75 C 73.94975 200.7391 73.93525 200.73965 73.90625 200.71875 C 73.81625 200.64975 73.733 200.58125 73.625 200.53125 C 73.555 200.49135 73.455 200.4575 73.375 200.4375 C 73.327 200.4275 73.2797 200.41615 73.21875 200.40625 C 73.10985 200.39625 73.005 200.38625 72.875 200.40625 C 72.854 200.40625 72.8335 200.39625 72.8125 200.40625 C 70.0515 200.94625 66.4875 203.60625 63.9375 201.15625 L 63.90625 201.15625 L 63.8125 201.25 C 63.7615 201.311 63.7375 201.3765 63.6875 201.4375 C 62.6875 202.8765 64.115 204.73975 62.375 206.46875 C 60.735 208.10975 59.226 207.48125 57.375 208.03125 C 57.214 208.07125 57.06515 208.12645 56.90625 208.1875 C 56.26625 208.4475 55.85975 208.77 55.46875 209 C 55.99875 209.889 55.63385 210.17625 56.34375 210.15625 C 55.39385 214.66525 65.49 213.6465 65.5 218.9375 C 65.01 215.6465 62.63115 220.2325 62.28125 221.3125 C 61.74925 222.9115 61.64525 224.60125 61.65625 226.28125 C 61.68715 229.68125 62.37125 233.07075 62.28125 236.46875 C 62.88115 236.27875 63.46125 236.05225 64.03125 235.78125 C 64.14015 236.38125 64.34385 236.97025 64.59375 237.53125 C 63.49485 237.73125 62.59515 238.27625 61.90625 239.15625 C 64.17715 241.29625 67.745 238.301 69.125 236.5 C 71.146 233.86 71.23125 231.41 74.53125 229.75 C 76.49115 228.771 80.63385 228.1185 81.34375 225.6875 C 81.60375 224.7875 81.32245 223.83725 80.8125 222.90625 C 80.6125 222.54525 80.396 222.1715 80.125 221.8125 C 78.655 219.8415 76.369 217.931 75.5 216.5 C 76.469 217.1 78.01985 219.06575 79.71875 220.84375 L 79.75 220.84375 C 79.8093 220.90475 79.8453 220.96925 79.90625 221.03125 C 81.83615 223.05125 83.9165 224.7775 85.4375 223.9375 C 89.8675 221.5175 79.99715 214.91 79.40625 212.75 C 82.15615 214.848 83.89985 218.11675 87.21875 219.46875 C 87.61915 218.83923 86.6904 217.58153 85.5 216.28125 C 87.36 217.59025 87.46385 215 89.09375 214.75 C 88.01385 212.61 85.26375 212.89125 83.59375 211.53125 C 84.56375 211.57125 89.391 212.9075 88.75 210.1875 C 88.25 208.0565 86.08375 210.35375 85.59375 208.84375 C 87.68475 209.34375 88.335 207.22375 87.875 205.59375 C 87.835 205.58275 90.86475 206.53125 89.34375 206.53125 C 90.50275 208.27225 90.74115 208.3725 90.03125 206.8125 C 90.44015 207.4925 90.74785 208.20775 90.96875 208.96875 C 91.15975 208.02775 91.34225 207.075 91.53125 206.125 C 91.70115 208.526 94.20625 208.4615 95.15625 210.3125 C 96.17515 209.0225 98.94385 208.08125 100.34375 207.03125 C 101.37275 206.25025 103.67225 204.56025 105.03125 205.03125 C 105.34116 205.13436 105.82367 203.92942 106.3125 202.9375 L 81.59375 184.8125 z M 113.125 197.9375 C 112.87317 198.23762 112.6492 198.56415 112.4375 198.875 C 112.65285 198.56189 112.86873 198.2407 113.125 197.9375 z M 81.78125 212.625 C 83.11115 212.785 83.9035 214.515 84.8125 215.625 C 83.5835 214.365 82.25115 213.186 81.78125 212.625 z "
       transform="translate(-548.71902,-12.7193)"
       id="rect1373" />
    <path
       style="fill:#fcd116;fill-opacity:1;stroke:none"
       d="m -487.09375,23.906247 -12.375,38.4375 c 0.0317,0.01062 0.0638,0.02125 0.0937,0.03125 0.11,0.03 0.2125,0.085 0.3125,0.125 0.0909,0.0299 0.19125,0.05375 0.28125,0.09375 0.05,0.0099 0.11725,0.01125 0.15625,0.03125 0.091,0.04 0.171,0.085 0.25,0.125 0.051,0.02 0.085,0.0415 0.125,0.0625 0.159,0.07 0.3075,0.16 0.4375,0.25 0.4999,0.32 0.79,0.729 0.75,1.25 -0.06,0.82 -0.3175,1.355 -0.4375,1.875 0,0 -0.0312,0.02125 -0.0312,0.03125 -0.162,0.601 -0.069,1.1525 0.75,2.0625 0.79,0.87 1.9615,2.09 3.0625,2.75 0,0.01 0.0312,0 0.0312,0 0.1199,0.07 0.23475,0.1275 0.34375,0.1875 0.34,0.18 0.64885,0.27125 0.96875,0.28125 0.13,0 0.28625,0.0225 0.40625,0.0625 0.04,0.01 0.0738,0.0525 0.0937,0.0625 0.25,0.11 0.4775,0.27 0.6875,0.5 0.018,0.0199 0.0415,0.06375 0.0625,0.09375 0.42,0.48 0.7291,1.0975 1,1.6875 0.04,0.07 0.096,0.13875 0.125,0.21875 0.01,0.01 0.0202,0.0425 0.0312,0.0625 0.149,0.31 0.24285,0.5925 0.34375,0.8125 0.04,0.08 0.10625,0.13875 0.15625,0.21875 0,0.0099 0.0213,0.02125 0.0312,0.03125 0.0689,0.13 0.1185,0.27625 0.1875,0.40625 0.15,0.26 0.30875,0.5 0.46875,0.75 0.149,0.25 0.33,0.48875 0.5,0.71875 l 0,0.03125 c 0.17,0.23 0.35135,0.4575 0.53125,0.6875 0.282,0.34 0.56475,0.67 0.84375,1 0.2,0.22 0.39375,0.43625 0.59375,0.65625 0.1989,0.21 0.38375,0.43625 0.59375,0.65625 0.199,0.21 0.415,0.405 0.625,0.625 0.041,0.04 0.10625,0.09625 0.15625,0.15625 0.0612,0.06 0.0953,0.1175 0.15625,0.1875 0.058,0.07 0.1265,0.17 0.1875,0.25 0.069,0.08 0.14875,0.17 0.21875,0.25 0.08,0.09 0.13875,0.18125 0.21875,0.28125 0.08,0.1 0.16,0.18125 0.25,0.28125 0.17,0.21 0.3735,0.42625 0.5625,0.65625 0,0.0099 -0.01,0.02125 0,0.03125 1.471,1.73 3.375,3.75875 4.375,3.46875 0.122,-0.04 0.23385,-0.03 0.34375,0 l 0.0312,0 c 0.189,0.05 0.3725,0.185 0.5625,0.375 0.111,0.11 0.23475,0.225 0.34375,0.375 l 0,0.03125 c 0.9489,1.31 1.82275,3.81 2.84375,4.25 0.101,0.04 0.20125,0.09625 0.28125,0.15625 0.0879,0.06 0.15775,0.13875 0.21875,0.21875 0.991,1.04 0.75725,3.49625 1.40625,4.90625 0.019,0.05 0.0335,0.10625 0.0625,0.15625 0.051,0.1 0.1185,0.20125 0.1875,0.28125 0.011,0.0299 0.0415,0.06375 0.0625,0.09375 0.04,0.07 0.0953,0.13875 0.15625,0.21875 0.021,0.05 0.0537,0.09625 0.0937,0.15625 0.071,0.11 0.13875,0.245 0.21875,0.375 0.311,0.52 0.68035,1.11625 1.03125,1.40625 0.109,0.09 0.2115,0.1675 0.3125,0.1875 0.7499,0.12 1.54225,-0.64375 2.28125,-0.34375 0.051,0.02 0.11725,0.0425 0.15625,0.0625 0.11,0.06 0.17,0.1175 0.25,0.1875 0.088,0.06 0.189,0.1175 0.25,0.1875 0.231,0.2 0.3591,0.436253 0.5,0.656253 0.141,0.22 0.27625,0.43625 0.40625,0.65625 0.082,0.14 0.149,0.27625 0.25,0.40625 l 0.0312,0 c 0.03,0.04 0.0537,0.085 0.0937,0.125 0.282,0.29 0.67225,0.5375 1.28125,0.6875 0.1679,0.03 0.31875,0.1175 0.46875,0.1875 l 0.0312,0 c 0.0999,0.05 0.2036,0.0962 0.3125,0.15625 0.101,0.05 0.23475,0.1175 0.34375,0.1875 0.121,0.06 4.65035,3.45 4.78125,3.5 0.05,0.02 0.10525,0.0425 0.15625,0.0625 l 0,0.0312 c -0.021,0.0299 -0.0415,0.0537 -0.0625,0.0937 -0.031,0.05 -0.0638,0.0962 -0.0937,0.15625 -0.021,0.0299 -0.0425,0.0637 -0.0625,0.0937 -0.29,0.46 -0.6941,0.87 -1.125,1.25 -0.039,0.0299 -0.085,0.0637 -0.125,0.0937 -0.122,0.11 -0.22375,0.2125 -0.34375,0.3125 -0.239,0.2 -0.49775,0.405 -0.71875,0.625 -0.3989,0.39 -0.7496,0.82375 -0.9375,1.34375 -0.23,0.62 0.22625,1.32 0.90625,2 0.139,0.13 0.2885,0.245 0.4375,0.375 1.34,1.17 3.23525,2.32375 3.65625,3.09375 1.0899,2.01 3.45125,1.99625 2.28125,4.90625 -0.282,0.7 -0.979,1.4175 -1.25,2.1875 l 0,0.0312 c -0.069,0.18 -0.0838,0.3825 -0.0937,0.5625 0,0.1 0.0102,0.19125 0.0312,0.28125 0.16,0.76 0.9485,1.38375 0.9375,2.34375 -0.01,0.83 -0.0777,1.46875 -0.21875,1.96875 0.021,0.6 0.31475,0.6775 0.34375,1.1875 0.0108,0.47 0.0152,0.935 -0.0937,1.375 -0.0209,0.11 -0.085,0.22375 -0.125,0.34375 -0.1199,0.31 -0.3126,0.59375 -0.5625,0.84375 -0.609,0.65 -1.3734,1.21875 -1.0625,2.21875 0.071,0.24 0.096,0.4475 0.125,0.6875 0.11,0.86 0.035,1.755 0.125,2.625 0.03,0.25 0.0953,0.5 0.15625,0.75 0.38,1.41 1.3775,3.11 1.9375,4.5 0.032,0.09 0.0638,0.13875 0.0937,0.21875 0.1399,0.33 0.2886,0.6475 0.4375,0.9375 0.029,0.07 0.0548,0.14875 0.0937,0.21875 0.069,0.14 0.14875,0.27625 0.21875,0.40625 0.1879,0.34 0.36125,0.64875 0.53125,0.96875 0.111,0.19 0.2125,0.3725 0.3125,0.5625 0.09,0.18 0.20125,0.3725 0.28125,0.5625 0.0799,0.16 0.14975,0.30875 0.21875,0.46875 0.071,0.15 0.1375,0.29875 0.1875,0.46875 0.04,0.12 0.0648,0.26625 0.0937,0.40625 0.021,0.07 0.0515,0.1175 0.0625,0.1875 0.148,0.68 0.1924,1.4225 0.0625,2.3125 -0.021,0.12 -0.0415,0.22375 -0.0625,0.34375 -0.0319,0.21 -0.0953,0.43625 -0.15625,0.65625 -0.119,0.47 -0.25735,0.925 -0.40625,1.375 -0.4308,1.32 -0.85475,2.62125 -0.34375,4.03125 0.46,1.29 1.34435,2.525 1.65625,3.875 0.048,0.19 0.0727,0.39375 0.0937,0.59375 0.141,1.51 -0.53635,3.64 -1.15625,5 0,0.01 0.011,0.0312 0,0.0312 -0.121,0.28 -0.2661,0.4525 -0.375,0.5625 -0.34,0.34 -0.6201,0.0513 -1,-0.21875 l -0.0312,0 c -0.34,-0.23 -0.7525,-0.425 -1.3125,-0.125 -0.42,0.22 -0.79735,0.49125 -1.15625,0.78125 -0.01,0.01 0,0.0213 0,0.0312 -0.281,0.23 -0.5525,0.46875 -0.8125,0.71875 -0.009,0.01 -0.0202,0.0213 -0.0312,0.0312 -0.611,0.58 -1.19475,1.19875 -1.84375,1.71875 -0.019,0.01 -0.0525,0.0213 -0.0625,0.0312 -0.22,0.18 -0.4585,0.32875 -0.6875,0.46875 -0.039,0.0299 -0.0548,0.0737 -0.0937,0.0937 -0.12,0.08 -0.255,0.1175 -0.375,0.1875 -0.01,0 -0.0102,0.0213 -0.0312,0.0312 -2.1108,1.1689 -3.94163,1.04229 -6.375,1.625 l 24.71875,18.125 c 0.27214,-0.5533 0.55532,-1.04044 0.78125,-1.1875 1.319,-0.87 2.88525,-1.50875 4.40625,-1.96875 0.74092,-0.22904 1.13531,-1.45088 1.90625,-2.15625 l -17.03125,-52.96875 14.6875,-10.78125 c -0.0519,-0.16785 -0.11779,-0.32973 -0.15625,-0.5 -0.301,-1.28 1.4615,-0.60125 0.3125,-2.28125 -0.7389,-1.08 -1.1426,-3.0275 -2.0625,-0.6875 -0.21,-2.76 -11.2964,-9.9525 -7.6875,-13.0625 -2.4119,-1.27 -0.55,1.32625 -1.75,2.15625 1.25,-1.37 -3.29225,-7.408753 -5.53125,-4.71875 -1.66,-2.500003 -3.94775,-4.221253 -6.46875,-5.781253 0.601,0.18 1.20125,0.39625 1.78125,0.65625 -1.152,-1.25 -4.40785,-5.3775 -6.46875,-4.1875 1.5609,-3.28 -4.54875,-6.24125 -6.46875,-7.78125 -2.59,-2.08 -2.79,-5.725 -6,-6.375 -0.599,-2.26 1.44125,-3.68875 -0.46875,-5.46875 -1.3499,-1.25 -2.865,-2.35625 -4.375,-3.40625 -1.5799,-1.1 -2.954,-2.30375 -4.125,-3.84375 -0.8689,-1.15 -1.335,-4.31875 -2.125,-2.21875 -0.2099,-3.05 -3.7675,-3.805 -1.9375,-7.125 1.6209,-2.94 0.29375,-5.03625 0.59375,-8.15625 0.232,-2.26 0.94785,-5.6825 3.21875,-6.8125 0.73629,0.939776 3.67318,-1.922075 4.8125,-3.5625 l -4.53125,-14.09375 z"
       id="path3649" />
  </g>
</svg>
